<?xml version="1.0" standalone="no"?>
<!DOCTYPE svg PUBLIC "-//W3C//DTD SVG 1.1//EN" "http://www.w3.org/Graphics/SVG/1.1/DTD/svg11.dtd" >
<svg xmlns="http://www.w3.org/2000/svg">
<metadata>Generated by IcoMoon</metadata>
<defs>
<font id="icomoon" horiz-adv-x="1024">
<font-face units-per-em="1024" ascent="960" descent="-64" />
<missing-glyph horiz-adv-x="1024" />
<glyph unicode="&#x20;" d="" horiz-adv-x="512" />
<glyph unicode="&#xe600;" d="M947.21 738.14h-71.119v106.626l-146.485 2.177 0.728-108.803h-440.652l3.263 108.803-143.62-2.177v-108.803l-72.535 2.177c-39.894 0-72.535-32.641-72.535-72.535v-507.744c0-39.894 32.641-72.535 72.535-72.535h870.422c39.894 0 72.535 32.641 72.535 72.535v507.744c0 39.894-32.641 72.535-72.535 72.535zM765.877 810.679h72.535v-145.073h-72.535v145.073zM294.393 563.692c43.885 0 79.425-46.784 79.425-104.451s-35.542-104.125-79.425-104.125-79.425 46.422-79.425 104.125c0 57.663 35.542 104.451 79.425 104.451zM185.588 810.679h72.535v-145.073h-72.535v145.073zM137.321 232.204c0 0 8.343 68.909 27.927 82.002 19.584 13.020 75.798 21.759 75.798 21.759s36.631-38.809 52.19-38.809c15.232 0 51.863 38.809 51.863 38.809s56.216-8.705 75.798-21.759c22.85-15.232 28.652-82.002 28.652-82.002h-312.228zM874.679 266.661h-326.412v36.268h326.412v-36.268zM874.679 339.197h-326.412v36.268h326.412v-36.268zM874.679 411.732h-326.412v36.268h326.412v-36.268zM874.679 484.268h-326.412v36.268h326.412v-36.268z" />
<glyph unicode="&#xe601;" d="M718.095 590.318h-82.14v-527.999h82.14v527.999zM553.111 590.318h-82.208v-527.999h82.208v527.999zM388.043 590.318h-82.208v-527.999h82.208v527.999zM842.117 62.327c0-67.502-55.232-122.031-124.014-122.031h-412.265c-68.727 0-123.957 54.588-123.957 122.031l-82.85 649.252h825.949l-82.85-649.252zM429.086 955.699h165.7c22.541 0 41.167-81.569 41.167-81.569h-247.91c0 0.065 18.629 81.569 41.045 81.569zM57.925 752.75v60.303c0 34.102 27.614 61.074 61.657 61.074h784.835c33.98 0 61.714-26.973 61.714-61.074v-60.303h-908.219z" />
<glyph unicode="&#xe602;" d="M625.23 347.135h-153.425c-20.868 0-38.257 17.005-38.257 38.217v232.681c0 21.255 17.39 38.257 38.257 38.257 21.255 0 38.257-17.005 38.257-38.257v-194.386h115.163c21.292 0 38.257-16.963 38.257-38.257 0-21.255-17.005-38.257-38.257-38.257zM508.136 852.614c-224.145 0-405.774-181.633-405.774-405.774s181.633-405.774 405.774-405.774c224.104 0 405.774 181.633 405.774 405.774s-181.671 405.774-405.774 405.774zM512-54.388c-277.469 0-502.388 224.917-502.388 502.388s224.917 502.388 502.388 502.388c277.469 0 502.388-224.917 502.388-502.388s-224.917-502.388-502.388-502.388z" />
<glyph unicode="&#xe603;" d="M384.23 703.537h63.884v-319.425h-63.884v319.425zM895.306 192.463h-63.884v511.076h63.884v-511.076zM767.537 703.537h31.943v-319.425h-31.943v319.425zM723.745 320.87h-18.526v18.526h56.283v-18.526h-37.756zM761.501 264.651v56.219h18.526v-93.591h-18.526v37.373zM742.592 227.281h18.908v-18.848h-56.283v18.848h37.373zM705.22 302.022v-74.745h-18.848v93.591h18.848v-18.848zM703.655 384.116h-31.943v319.425h31.943v-319.425zM575.884 703.537h63.884v-319.425h-63.884v319.425zM570.456 208.43h-18.526v18.848h37.373v-18.848h-18.848zM589.302 227.281v18.526h18.848v-18.526h-18.848zM570.456 320.87h-18.526v18.526h56.219v-18.526h-37.692zM589.302 283.177h18.848v37.692h18.526v-75.065h-18.526v18.848h-56.219v18.526h37.373zM551.928 302.022v-18.848h-18.848v37.692h18.848v-18.848zM512 384.116h-31.943v319.425h31.943v-319.425zM398.571 302.022h-18.848v18.848h18.848v-18.848zM435.946 264.651h-18.848v18.526h37.692v-18.526h-18.848zM379.726 245.805h18.848v-18.526h-18.848v18.526zM435.946 208.43h-37.373v18.848h56.219v-18.848h-18.848zM473.319 245.805v-18.526h-18.526v37.373h18.526v-18.848zM473.319 302.022v-18.848h-18.526v37.692h18.526v-18.848zM417.1 339.395h37.692v-18.526h-56.219v18.526h18.526zM352.288 384.116h-31.943v319.425h31.943v-319.425zM245.284 302.022h-18.848v18.848h18.848v-18.848zM263.808 227.281h56.219v-18.848h-93.591v37.373h18.848v-18.526h18.526zM245.284 245.805v18.848h18.526v-18.848h-18.526zM282.657 264.651h-18.848v18.526h37.692v-18.526h-18.848zM320.025 302.022v-18.848h-18.526v37.692h18.526v-18.848zM263.808 339.395h37.692v-18.526h-56.219v18.526h18.526zM256.463 384.116h-31.943v319.425h31.943v-319.425zM192.575 192.463h-63.884v511.076h63.884v-511.076zM959.19 767.425h-894.385v-638.846h894.385v638.846zM959.19 64.694h-894.385c-35.136 0-63.884 28.749-63.884 63.884v638.846c0 35.136 28.749 63.884 63.884 63.884h894.385c35.136 0 63.884-28.749 63.884-63.884v-638.846c0-35.136-28.749-63.884-63.884-63.884z" />
<glyph unicode="&#xe604;" d="M610.703 616.84c0-141.976-113.069-257.209-252.065-257.209-139.468 0-252.149 115.239-252.149 257.209 0 39.91 9.779 77.364 25.971 111.328l12.282-12.282c23.848 53.134 65.931 95.638 118.215 119.487l-12.366 13.133c32.732 15.769 69.331 25.589 108.012 25.589 139.041-0.082 252.107-115.282 252.107-257.25zM981.319-17.792c25.971 26.739 25.971 70.138 0 96.873l-189.961 193.873c-22.145 22.489-55.3 25.083-80.765 9.779l-102.017 103.668c53.558 60.786 86.755 140.744 86.755 229.152 0 189.114-150.519 342.563-336.23 342.563-185.375 0-335.805-153.41-335.805-342.563 0-189.624 150.433-343.031 335.805-343.031 75.239 0 144.058 25.503 199.743 67.583l104.102-105.843c-14.877-26.314-12.712-59.941 9.399-82.42l190.053-193.873c26.314-26.822 68.819-26.822 95.214 0l23.723 24.228z" />
<glyph unicode="&#xe605;" d="M265.009 736.789c-38.294 0-69.214 30.915-69.214 69.214v72.377c0 38.294 30.915 69.214 69.214 69.214s69.214-30.915 69.214-69.214v-72.377c0-38.294-30.915-69.214-69.214-69.214zM756.922 736.789c-38.331 0-69.247 30.915-69.247 69.214v72.377c0 38.294 30.915 69.214 69.247 69.214 38.294 0 69.182-30.915 69.182-69.214v-72.377c-0.037-38.294-30.884-69.214-69.182-69.214zM646.913 203.801c9.137 7.381 13.738 17.216 13.738 29.863 0 13.387-5.623 23.544-17.216 30.566-11.242 7.026-27.054 10.891-47.080 10.891h-26.7v49.544h24.561c38.294 0 57.656 13.035 57.656 38.294 0 24.244-14.756 36.185-44.268 36.185-19.712 0-39.034-6.324-57.656-19.325v53.405c20.732 10.191 44.934 15.46 72.412 15.46 30.181 0 53.72-6.678 70.621-20.378 16.829-13.703 25.299-31.27 25.299-53.054 0-38.294-19.677-62.537-58.709-72.377v-1.053c20.764-2.463 37.279-10.191 49.19-22.489 12.297-12.65 18.305-28.141 18.305-46.376 0-27.405-10.191-49.544-30.214-65.35-20.378-16.162-48.1-24.244-83.616-24.244-30.566 0-55.127 4.953-74.488 14.756v56.6c20.026-14.408 42.867-21.466 69.214-21.466 16.829 0 29.479 3.513 38.965 10.54zM409.057 321.151c7.026 11.242 10.54 22.838 10.54 34.781 0 27.405-14.756 40.757-43.918 40.757-25.646 0-49.89-9.835-73.075-30.214v57.269c25.646 16.516 54.811 24.948 87.13 24.948 30.214 0 53.753-7.731 70.621-22.838s25.299-35.486 25.299-61.484c0-34.431-20.732-69.919-61.837-106.848l-60.783-53.72v-1.403h119.807v-53.753h-194.293v50.592l84.675 80.807c16.866 16.546 28.81 30.214 35.839 41.108zM933.61 596.25h-843.221v-562.147h843.221v562.147zM933.61-36.164h-843.221c-38.647 0-70.268 31.621-70.268 70.268v737.818c0 38.647 31.621 70.268 70.268 70.268h70.268v-35.135c0-58.323 47.080-105.403 105.403-105.403s105.403 47.080 105.403 105.403v35.135h281.073v-35.135c0-58.323 47.080-105.403 105.403-105.403s105.403 47.080 105.403 105.403v35.135h70.268c38.647 0 70.268-31.621 70.268-70.268v-737.818c0-38.613-31.621-70.268-70.268-70.268z" />
<glyph unicode="&#xe606;" d="M742.326 594.425c9.664 9.276 9.664 24.771 0 34.433l-51.397 51.010c-9.237 9.664-24.736 9.664-34.004 0l-145.303-145.303-145.303 145.303c-9.664 9.664-24.736 9.664-34.395 0l-51.397-51.010c-9.276-9.664-9.276-25.12 0-34.433l145.732-145.303-145.732-145.303c-9.276-9.664-9.276-24.771 0-34.433l51.397-50.94c9.664-9.664 24.736-9.664 34.395 0l145.303 145.303 145.303-145.303c9.276-9.664 24.771-9.664 34.004 0l51.397 50.94c9.664 9.664 9.664 24.771 0 34.433l-145.303 145.303 145.303 145.303zM512-54.388c-277.469 0-502.388 224.917-502.388 502.388s224.917 502.388 502.388 502.388c277.469 0 502.388-224.917 502.388-502.388s-224.917-502.388-502.388-502.388z" />
<glyph unicode="&#xe607;" d="M793.682 627.148l-49.82 51.264c-9.417 8.967-24.413 8.967-33.881 0l-301.459-305.444-143.431 146.523c-8.967 8.967-23.915 8.967-33.383 0l-50.321-50.869c-8.967-9.417-8.967-24.911 0-34.33l159.87-162.911 42.895-43.391 7.377-7.872c9.518-9.062 24.413-9.062 33.383 0l368.668 373.049c9.668 9.518 9.668 24.911 0.097 33.981zM511.703-63.448c-278.989 0-505.12 229.175-505.12 511.698 0 281.879 226.133 511.149 505.12 511.149 279.092 0 505.673-229.271 505.673-511.149 0.049-282.532-226.581-511.698-505.673-511.698z" />
<glyph unicode="&#xe608;" d="M1001.835 674.385l-585.9-585.9c-14.638-14.638-38.557-14.638-53.16 0l-11.605 11.979-13.103 12.73-55.033 55.071-0.751 1.458-253.455 254.987c-14.977 14.977-14.977 38.523 0 53.536l79.742 79.708c14.601 14.638 38.557 14.638 53.16 0l227.994-229.455 479.166 478.791c14.638 14.977 38.597 14.977 53.16 0l79.779-79.708c14.977-14.675 14.977-38.635 0-53.196z" />
<glyph unicode="&#xe609;" d="M511.076 345.4c-55.049 0-100.131 44.721-100.131 99.732 0 55.491 45.078 100.131 100.131 100.131 55.008 0 100.131-44.636 100.131-100.131 0-55.008-45.116-99.732-100.131-99.732zM511.076 662.582c-121.669 0-219.804-98.568-219.804-219.804 0-121.709 98.138-220.242 219.804-220.242 121.632 0 219.804 98.568 219.804 220.242 0 121.23-98.173 219.804-219.804 219.804zM929.582 343.842h-52.655c-8.416-31.159-20.783-60.238-36.702-87.798l49.025-48.628c31.116-31.553 31.116-81.814 0-113.292l-28.327-28.366c-31.515-31.076-82.217-31.076-113.292 0l-49.065 49.065c-27.129-15.2-56.645-27.489-87.325-35.903v-51.017c0-44.32-35.903-80.184-80.184-80.184h-39.893c-44.281 0-80.184 35.821-80.184 80.184v51.017c-30.757 8.416-60.238 20.745-87.362 35.903l-49.025-49.065c-31.515-31.076-81.775-31.076-113.292 0l-28.327 28.366c-31.116 31.475-31.116 81.739 0 113.292l49.065 48.628c-15.959 27.562-28.327 56.645-36.702 87.798h-53.055c-43.88 0-79.783 35.903-79.783 80.184v39.893c0 44.241 35.903 80.184 79.783 80.184h52.259c8.381 30.718 20.348 59.839 35.505 86.965l-47.073 47.073c-31.116 31.159-31.116 81.814 0 112.893l28.327 28.366c31.515 31.475 81.775 31.475 113.292 0l45.837-45.876c28.327 16.359 58.641 29.119 90.593 37.858v53.933c0 43.88 35.863 79.783 80.184 79.783h39.893c44.241 0 80.184-35.903 80.184-79.783v-53.933c31.912-8.739 62.269-21.502 90.557-37.858l45.876 45.876c31.076 31.475 81.775 31.475 113.292 0l28.327-28.366c31.116-31.076 31.116-81.739 0-112.893l-47.11-47.073c15.2-27.129 27.167-56.253 35.544-86.965h51.898c44.241 0 80.184-35.903 80.184-80.184v-39.893c-0.117-44.281-36.019-80.184-80.262-80.184z" />
<glyph unicode="&#xe60a;" d="M14.251 945.749h435.538v-435.538h-435.538v435.538zM14.251 385.781h435.538v-435.538h-435.538v435.538zM574.219 945.749h435.538v-435.538h-435.538v435.538zM574.219-49.749v435.538h435.538v-435.538h-435.538z" />
<glyph unicode="&#xe60b;" d="M470.813 693.651l-29.755-30.184 330.279-330.705 30.184 30.226-330.705 330.66zM350.51 573.354l330.705-330.66 30.226 30.136-330.746 330.705-30.184-30.184zM213.644 830.567c-46.756 0-85.014-38.257-85.014-85.014 0-47.183 38.257-85.014 85.014-85.014 47.183 0 85.014 37.832 85.014 85.014 0 46.716-37.832 85.014-85.014 85.014zM591.103 152.536l30.136 30.226-330.705 330.705-30.184-30.184 330.746-330.746zM997.474 322.138l-360.886-360.886c-33.156-33.113-87.565-32.732-121.145 1.317l-513.484 524.069 1.274 472.677h473.529l519.435-516.033c34.004-33.581 34.431-87.994 1.274-121.145z" />
<glyph unicode="&#xe60c;" d="M15.195-45.073l108.006 38.849-68.498 67.4zM66.215 95.754l92.066-90.965 186.262 65.214-212.566 208.781zM997.178 799.367l-123.842 121.597c-27.401 26.853-71.733 26.853-99.131 0l-76.724-75.021 223.035-219.197 76.114 75.021c27.401 27.401 27.95 70.743 0.551 97.597zM149.503 307.774l224.124-220.785 524.418 515.652-224.124 220.785-524.418-515.652zM796.068 602.092l-421.892-414.821-24.606 24.052 421.892 414.821 24.606-24.052zM746.807 650.808l-422.002-415.37-24.606 24.165 421.892 415.37 24.71-24.165zM276.031 283.71l-24.606 24.052 421.892 415.37 24.71-24.052-422.002-415.37z" />
<glyph unicode="&#xe60d;" d="M858.236 397.833l-397.625 2.637 0.646 397.49 131.719-133.582 256.26 258.251 135.448-137.443-255.617-257.548 129.156-129.798zM919.832-65.805h-815.663c-56.583 0-102.113 46.247-102.113 102.762v822.086c0 56.513 45.532 102.829 102.113 102.829h356.386l102.113-102.829-456.576-1.924-0.646-820.804 816.247 0.646-1.287 462.36 97.625-100.126 3.916-362.292c-0.065-56.456-45.608-102.698-102.113-102.698z" />
<glyph unicode="&#xe60e;" d="M77.601 92.342c0-31.074 25.087-56.157 56.157-56.157s56.157 25.087 56.157 56.157v93.596h-112.313v-93.596zM938.665 560.313h-37.438c0 0-50.579 161.395-71.88 224.627-21.004 63.233-33.357 74.875-74.875 74.875h-492.679c-41.556 0-58.778-18.72-74.875-74.875-16.474-56.157-71.88-224.627-71.88-224.627h-37.438c-41.181 0-74.875-33.694-74.875-74.875v-187.189c0-41.181 33.694-74.875 74.875-74.875h861.062c41.181 0 74.875 33.694 74.875 74.875v187.189c0 41.181-33.694 74.875-74.875 74.875zM154.723 335.687c-41.181 0-74.875 33.694-74.875 74.875s33.694 74.875 74.875 74.875c41.556 0 74.875-33.694 74.875-74.875s-33.32-74.875-74.875-74.875zM751.476 298.247h-486.688v37.438h486.688v-37.438zM751.476 373.125h-486.688v37.438h486.688v-37.438zM751.476 448h-486.688v37.438h486.688v-37.438zM601.727 560.313c0 41.181 33.656 79.708 74.875 79.708 41.181 0 74.875-38.523 74.875-79.708 0-1.085-149.753-1.085-149.753 0zM675.066 659.183c-51.254 0-92.808-47.961-93.596-98.873h-428.995c0 0 62.523 192.017 71.88 224.627 9.362 32.908 16.474 37.438 37.438 37.438h227.621v-37.438h-18.72c-10.479 0-18.72-8.277-18.72-18.72s8.237-18.72 18.72-18.72h74.875c10.442 0 18.72 8.277 18.72 18.72s-8.277 18.72-18.72 18.72h-18.72v37.438h227.621c20.924 0 28.078-11.641 37.438-37.438s71.88-224.627 71.88-224.627h-95.505c-0.712 50.876-42.231 98.873-93.22 98.873zM861.543 333.406c-41.519 0-74.875 33.357-74.875 74.875 0 41.181 33.357 74.875 74.875 74.875 41.181 0 74.875-33.694 74.875-74.875 0-41.519-33.728-74.875-74.875-74.875zM826.354 92.342c0-31.074 25.087-56.157 56.157-56.157s56.157 25.087 56.157 56.157v93.596h-112.313v-93.596z" />
<glyph unicode="&#xe60f;" d="M671.712 402.322c0-105.762-71.55-191.655-159.712-191.655h415.25v383.306h-415.25c88.161 0 159.712-85.892 159.712-191.655zM799.483 466.207c26.513 0 47.914-28.749 47.914-63.884s-21.405-63.884-47.914-63.884-47.914 28.749-47.914 63.884 21.405 63.884 47.914 63.884zM0.924 689.802v-574.961h1022.154v574.961h-1022.154zM959.19 178.728h-894.385v449.139h894.385v-449.139zM352.288 402.322c0 105.762 71.55 191.655 159.712 191.655h-415.25v-383.306h415.25c-88.161 0-159.712 85.924-159.712 191.655zM224.517 338.438c-26.513 0-47.914 28.749-47.914 63.884s21.405 63.884 47.914 63.884 47.914-28.749 47.914-63.884-21.405-63.884-47.914-63.884zM432.142 288.608c1.628-1.564 4.503-3.481 8.306-5.75 4.185-2.239 8.978-4.503 14.725-6.356 6.038-2.239 12.779-3.866 20.412-5.432 7.667-1.311 15.972-1.948 24.628-1.948h1.244v-30.694h31.303v34.815l4.793 0.99c11.467 3.481 21.722 8.625 30.314 15.333 8.625 6.997 15.333 15.3 20.475 25.524 5.112 10.54 7.667 22.39 7.667 35.808 0 10.54-1.628 19.454-4.793 27.15s-7.347 14.342-12.779 19.773c-5.112 5.75-10.862 10.54-17.599 14.725-6.677 4.121-13.415 7.667-20.412 10.862l-20.445 8.942c-6.356 2.873-12.49 6.038-17.921 9.294-5.112 3.194-9.23 6.997-12.425 11.18-3.194 4.121-4.793 9.23-4.793 14.981 0 3.866 0.925 7.347 2.239 10.924 1.244 3.481 3.481 6.356 6.356 8.91 2.873 2.239 6.42 4.121 10.54 5.75 4.503 1.311 9.294 1.948 15.043 1.948 7.347 0 14.021-0.99 20.093-2.555 6.102-1.948 11.528-3.866 16.292-6.038 4.503-2.239 8.658-4.185 11.851-6.102 3.194-1.885 5.432-2.555 7.061-2.555 1.244 0 2.491 0.321 3.481 0.99 0.641 0.925 1.244 2.239 1.948 3.8 0.321 1.948 0.641 4.185 0.925 6.739l0.321 9.87-0.321 8.658-0.641 5.75-1.276 3.739c-0.321 0.641-1.244 1.948-2.555 3.194-1.244 1.311-4.121 2.873-8.306 5.112-4.121 1.948-8.625 3.547-14.021 5.112-5.432 1.628-11.18 2.873-17.281 3.866l-3.8 0.321v32.869h-31.303v-32.869c-5.75-0.641-11.467-1.948-16.898-3.547-10.54-2.873-19.515-7.602-27.502-13.735-7.602-6.356-13.735-14.021-18.463-23.287-4.503-9.614-6.739-20.475-6.739-32.615 0-10.862 1.628-20.093 4.793-27.758s7.347-14.403 12.425-20.156c5.112-5.75 10.924-10.54 17.281-14.662 6.677-3.866 13.415-7.667 20.156-10.862l20.093-8.978c6.739-2.873 12.49-6.038 17.599-9.23s9.23-7.061 12.425-11.18c3.261-4.185 4.793-9.294 4.793-15.043 0-5.112-0.925-9.614-2.873-13.735-1.628-4.185-4.503-7.667-7.987-10.54-3.481-2.555-7.667-4.793-12.779-6.356-5.112-1.628-10.862-2.239-17.217-2.239-9.614 0-18.207 0.925-25.585 3.194s-13.735 4.503-19.164 7.347c-5.432 2.555-9.614 5.112-13.099 7.313-3.194 1.948-6.038 3.261-7.667 3.261-1.564 0-2.555-0.384-3.481-1.311-1.311-0.641-1.948-1.948-2.555-3.481-0.641-1.948-0.925-4.185-1.311-6.739l-0.321-10.54c0-6.038 0.321-10.862 0.99-14.021 0.863-3.261 1.788-5.811 3.739-7.731z" />
<glyph unicode="&#xe610;" d="M413.164 842.966c-20.591 0-37.438-16.882-37.438-37.438 0-20.627 16.847-37.438 37.438-37.438 20.554 0 37.438 16.81 37.438 37.438 0 20.554-16.882 37.438-37.438 37.438zM637.789 725.379c20.554 0 37.438-16.81 37.438-37.438v-72.253h-524.123v72.253c0 20.627 16.847 37.438 37.438 37.438h112.313c0 0 0.376 53.16 0.376 113.853 0 62.898 48.671 115.682 111.939 115.682s113.437-55.404 113.437-116.055c0-65.514-1.085-113.475-1.085-113.475h112.276zM151.101 93.47h37.438v-37.438h-37.438v37.438zM151.101 205.368h37.438v-37.438h-37.438v37.438zM151.101 317.305h37.438v-37.061h-37.438v37.061zM151.101 429.619h37.438v-37.438h-37.438v37.438zM151.101 541.558h37.438v-37.438h-37.438v37.438zM263.414 92.306h411.813v-37.061h-411.813v37.061zM263.414 204.619h411.813v-37.438h-411.813v37.438zM263.414 316.556h411.813v-37.438h-411.813v37.438zM263.414 428.869h411.813v-37.438h-411.813v37.438zM263.414 540.808h411.813v-37.438h-411.813v37.438zM750.101-58.906h-673.876c-41.181 0-74.875 33.283-74.875 74.502v752.494c0 41.181 33.694 74.875 74.875 74.875h187.189v-77.865h-149.753c-20.591 0-37.438-16.882-37.438-37.438v-674.624c0-20.627 16.847-37.438 37.438-37.438h599c20.554 0 37.438 16.81 37.438 37.438v674.624c0 20.554-16.882 37.438-37.438 37.438h-149.753v77.865h187.189c41.181 0 74.875-33.694 74.875-74.875v-752.494c0-41.217-33.694-74.502-74.875-74.502z" horiz-adv-x="832" />
<glyph unicode="&#xe611;" d="M567.404 653.909l-146.719-1.16v-225.338l-114.594 1.495 206.655-186.065v-0.751l167.719 184.564-111.939 1.458zM512 953.404c-279.251 0-505.404-226.123-505.404-505.404s226.162-505.404 505.404-505.404c279.322 0 505.404 226.084 505.404 505.404 0 279.251-226.084 505.404-505.404 505.404zM512 54.906c-217.101 0-393.094 175.921-393.094 393.094 0 217.14 175.994 393.094 393.094 393.094 217.175 0 393.094-175.957 393.094-393.094 0-217.175-175.921-393.094-393.094-393.094z" />
<glyph unicode="&#xe612;" d="M751.025 952.595h-702.050c-24.089 0-43.879-19.786-43.879-43.879v-921.44c0-24.175 19.786-43.879 43.879-43.879h702.050c24.175 0 43.879 19.702 43.879 43.879v921.44c0 24.089-19.702 43.879-43.879 43.879zM92.847 513.819h87.756v-87.756h-87.756v87.756zM92.847 382.181h87.756v-87.756h-87.756v87.756zM92.847 250.545h87.756v-87.756h-87.756v87.756zM312.244 31.156h-219.392v87.756h219.392v-87.756zM312.244 162.79h-87.756v87.756h87.756v-87.756zM312.244 294.427h-87.756v87.756h87.756v-87.756zM312.244 426.060h-87.756v87.756h87.756v-87.756zM443.879 31.156h-87.756v87.756h87.756v-87.756zM443.879 162.79h-87.756v87.756h87.756v-87.756zM443.879 294.427h-87.756v87.756h87.756v-87.756zM443.879 426.060h-87.756v87.756h87.756v-87.756zM575.516 31.156h-87.756v87.756h87.756v-87.756zM575.516 162.79h-87.756v87.756h87.756v-87.756zM575.516 294.427h-87.756v87.756h87.756v-87.756zM575.516 426.060h-87.756v87.756h87.756v-87.756zM707.153 31.156h-87.756v219.392h87.756v-219.392zM707.153 294.427h-87.756v87.756h87.756v-87.756zM707.153 426.060h-87.756v87.756h87.756v-87.756zM707.153 601.573h-614.293v263.271h614.293v-263.271z" horiz-adv-x="800" />
<glyph unicode="&#xe613;" d="M111.309 548.173h801.372c55.187 0 100.173-45.169 100.173-100.173 0-55.187-44.978-100.173-100.173-100.173h-801.372c-54.991 0-100.173 44.978-100.173 100.173 0 54.991 45.169 100.173 100.173 100.173z" />
<glyph unicode="&#xe614;" d="M598.179 14.099c17.184 0 31.074 14.223 31.074 31.443v103.328c20.554 21.339 41.181 40.43 61.773 57.277v-192.053c0-34.444-29.612-62.523-64.056-62.523h-156.827c13.44 20.591 28.078 41.519 43.429 62.523h84.608zM71.398 765.846v-720.297c0-17.221 13.814-31.443 30.698-31.443h183.444c33.618-17.972 54.993-41.929 66.977-62.523h-281.152c-34.070 0-61.773 28.078-61.773 62.523v783.195c0 34.444 27.707 62.523 61.773 62.523h156.116v-62.523h-125.415c-16.81 0-30.662-14.223-30.662-31.443zM349.185 859.813c-16.81 0-30.698-14.223-30.698-31.443s13.889-31.074 30.698-31.074c17.184 0 31.074 13.851 31.074 31.074s-13.889 31.443-31.074 31.443zM536.374 765.846c17.184 0 31.074-13.851 31.074-31.074v-62.523h-434.275v62.523c0 17.221 13.814 31.074 30.698 31.074h92.842c0 0 0.376 40.061 0.376 90.601 0 52.792 40.061 96.961 92.133 96.961s95.875-46.422 95.875-96.961c0-54.662-1.16-90.601-1.16-90.601h92.435zM629.252 765.846c0 17.221-13.889 31.443-31.074 31.443h-123.58v62.523h152.374c34.444 0 64.056-28.078 64.056-62.523v-297.629c-35.23-14.223-61.773-44.177-61.773-44.177v310.356zM758.378 289.638c-89.514-19.469-273.258-239.567-333.192-347.046-84.232 102.58-183.818 180.824-253.455 205.533l164.014 97.675 79.708-151.623c0 0 129.196 308.107 332.859 410.687-4.904-73.338-24.745-137.020 10.068-215.229z" horiz-adv-x="768" />
<glyph unicode="&#xe615;" d="M912.691 548.173c55.187 0 100.173-45.169 100.173-100.173 0-55.187-44.978-100.173-100.173-100.173h-300.517v-300.517c0-55.187-44.978-100.173-100.173-100.173-54.991 0-100.173 44.978-100.173 100.173v300.517h-300.517c-54.991 0-100.173 44.978-100.173 100.173 0 54.991 45.169 100.173 100.173 100.173h300.517v300.517c0 54.991 45.169 100.173 100.173 100.173 55.187 0 100.173-45.169 100.173-100.173v-300.517h300.517z" />
<glyph unicode="&#xe616;" d="M566.873 597.906l95.105-77.29v313.837h-193.227v-313.837zM43.652 834.455v38.646c0 21.217 17.39 38.646 38.646 38.646h762.041c-13.141 23.186-37.833 38.646-66.428 38.646h-695.614c-42.509 0-77.29-34.781-77.29-77.29v-850.194c0-42.509 34.781-77.29 77.29-77.29h38.646v850.194h-38.646c-21.255 0-38.646 17.352-38.646 38.646zM700.62 795.81v-352.481l-133.75 103.649-136.804-103.649v352.481h-270.521v-850.194h618.323c42.509 0 77.29 34.781 77.29 77.29v772.904h-154.542z" horiz-adv-x="864" />
<glyph unicode="&#xe617;" d="M400.362 552.388v-477.348h219.392v433.472l-87.756-87.756zM373.159 686.26l158.842-157.956 313.246 312.367 80.777-81.134-2.19 193.064-193.503-0.881 75.52-75.468-274.24-274.682-161.954 162.306-246.641-246.111 41.29-39.931zM137.097 75.033h219.392v477.348l-219.392-219.392zM48.902 952.595h-43.437v-1009.196h877.564v42.078l-833.689 2.239zM663.635 75.033h219.392v666.467l-219.392-219.392z" horiz-adv-x="928" />
<glyph unicode="&#xe618;" d="M100.608 55.976l791.486 0.626-1.803 447.911 94.574-96.997 3.794-350.97c0-54.747-44.243-99.551-98.922-99.551h-790.362c-54.692 0-98.87 44.802-98.87 99.551v796.396c0 54.747 44.183 99.616 98.87 99.616h345.995l98.922-99.616-442.931-1.864-0.748-795.089zM859.118 694.34l-248.252-249.5-131.215 132.47 247.57 249.56-124.436 125.742 384.507-2.555-0.626-384.507-127.544 128.799z" horiz-adv-x="992" />
<glyph unicode="&#xe619;" d="M520.237 692.463l245.216-244.463-245.216-244.463-33.656 34.070 186.4 186.4h-666.39v47.919h666.39l-186.4 186.438 33.656 34.104zM1017.404-1.249h-818.010v304.74h48.259v-256.447h721.461v801.914h-721.461v-256.484h-48.259v304.779h818.010v-898.5z" />
<glyph unicode="&#xe61a;" d="M585.241 561.131l-313.883 307.72-49.835 50.909c-23.698 24.32-54.756 37.335-88.13 37.335-33.486 0-64.542-13.014-88.295-37.335-23.195-23.756-36.258-55.996-36.258-89.935s13.014-65.62 36.767-89.935l265.241-268.685c5.658-6.226 9.050-14.145 9.050-22.63s-3.449-16.408-9.050-22.63l-265.806-269.822c-23.195-24.32-36.258-55.996-36.258-89.935 0-33.993 13.014-66.185 36.258-89.935 23.756-24.378 54.809-37.335 88.295-37.335 33.378 0 64.431 12.949 87.622 36.718l364.233 360.32c29.468 29.927 45.875 70.14 45.875 112.568s-16.288 82.019-45.821 112.625z" horiz-adv-x="640" />
<glyph unicode="&#xe61b;" d="M30.667-56.595c-5.619 0-11.233 2.147-15.529 6.404-8.557 8.557-8.557 22.464 0 31.020l467.173 467.173-467.173 467.129c-8.557 8.557-8.557 22.464 0 31.020s22.464 8.557 31.020 0l482.66-482.66c8.557-8.557 8.557-22.464 0-31.020l-482.66-482.66c-4.258-4.258-9.875-6.404-15.485-6.404z" horiz-adv-x="544" />
<glyph unicode="&#xe61c;" d="M490.746-40.826c-5.443 0-10.882 2.080-15.044 6.204l-467.577 467.577c-8.29 8.29-8.29 21.762 0 30.051l467.577 467.577c8.29 8.29 21.762 8.29 30.051 0s8.29-21.762 0-30.051l-452.531-452.531 452.531-452.531c8.29-8.29 8.29-21.762 0-30.051-4.125-4.166-9.566-6.245-15.001-6.245z" horiz-adv-x="512" />
<glyph unicode="&#xe61d;" d="M512 278.695c-32.076 0-57.969-25.896-57.969-57.969 0-31.688 25.896-57.969 57.969-57.969s57.969 26.281 57.969 57.969c0 32.076-25.896 57.969-57.969 57.969zM569.969 684.468c0 32.076-25.896 57.969-57.969 57.969s-57.969-25.896-57.969-57.969v-270.521c0-31.688 25.896-57.969 57.969-57.969s57.969 26.281 57.969 57.969v270.521zM512-54.388c-277.469 0-502.388 224.917-502.388 502.388s224.917 502.388 502.388 502.388 502.388-224.917 502.388-502.388-224.917-502.388-502.388-502.388z" />
<glyph unicode="&#xe61e;" d="M566.858 595.277c0 52.907-6.956 56.767-62.952 56.767-56.071 0-63.032-3.864-63.032-56.767v-77.754h125.982v77.754zM503.903-54.388c277.469 0 502.388 224.917 502.388 502.388s-224.917 502.388-502.388 502.388c-277.549 0-502.388-224.917-502.388-502.388s224.84-502.388 502.388-502.388zM291.355 240.050v277.469h55.612v86.565c0 76.517 66.043 138.347 147.624 138.347h18.552c81.502 0 147.934-61.833 147.934-138.347v-86.565h55.343v-277.469h-425.060z" horiz-adv-x="1008" />
<glyph unicode="&#xe61f;" d="M937.073 22.927h-850.14v85.014c0 93.941 76.129 170.031 170.031 170.031h42.508l212.536-212.536 212.536 212.536h42.508c93.982 0 170.031-76.093 170.031-170.031v-85.014zM660.774 277.969l-148.774-148.774-148.774 148.774h297.554zM767.044 362.986h-510.082c-140.744 0-255.044-114.3-255.044-255.044v-127.522c0-23.38 19.168-42.508 42.508-42.508h935.154c23.42 0 42.508 19.128 42.508 42.508v127.522c0 140.744-114.3 255.044-255.044 255.044zM371.256 405.492c-68.819 45.485-114.3 123.693-114.3 212.536 0 140.698 114.3 255.044 255.044 255.044s255.044-114.343 255.044-255.044c0-88.837-45.485-167.050-114.3-212.536h124.545c46.756 58.236 74.814 132.197 74.814 212.536 0 187.879-152.172 340.055-340.055 340.055s-340.055-152.172-340.055-340.055c0-80.338 28.056-154.297 74.814-212.536h124.458z" />
<glyph unicode="&#xe620;" d="M512 389.562c-31.074 0-56.157 25.087-56.157 56.157v189.472c0 31.074 25.087 56.157 56.157 56.157s56.157-25.087 56.157-56.157v-189.472c0-31.074-25.087-56.157-56.157-56.157zM512 204.654c-31.074 0-56.157 25.087-56.157 56.157s25.087 56.157 56.157 56.157 56.157-25.087 56.157-56.157-25.087-56.157-56.157-56.157zM512 841.094c-217.175 0-393.094-175.994-393.094-393.094 0-217.175 175.921-393.094 393.094-393.094 217.101 0 393.094 175.921 393.094 393.094 0 217.101-175.994 393.094-393.094 393.094zM512-57.404c-279.322 0-505.404 226.084-505.404 505.404 0 279.251 226.084 505.404 505.404 505.404 279.251 0 505.404-226.162 505.404-505.404 0-279.322-226.162-505.404-505.404-505.404z" />
<glyph unicode="&#xe621;" d="M669.711 486.646h-115.936v115.936c0 21.217-17.352 38.646-38.646 38.646-21.217 0-38.646-17.427-38.646-38.646v-115.936h-115.936c-21.217 0-38.646-17.427-38.646-38.646 0-21.292 17.427-38.646 38.646-38.646h115.936v-115.936c0-21.292 17.427-38.646 38.646-38.646 21.292 0 38.646 17.352 38.646 38.646v115.936h115.936c21.292 0 38.646 17.352 38.646 38.646 0 21.217-17.352 38.646-38.646 38.646zM515.52 950.388c-277.469 0-502.388-224.917-502.388-502.388s224.917-502.388 502.388-502.388 502.388 224.917 502.388 502.388-224.957 502.388-502.388 502.388zM515.52 61.545c-213.321 0-386.455 173.129-386.455 386.455s173.129 386.455 386.455 386.455c213.749 0 386.455-173.129 386.455-386.455s-172.703-386.455-386.455-386.455z" />
<glyph unicode="&#xe622;" d="M456.611 58.297h-330.162v39.744h330.162v-39.744zM456.611 182.086h-330.162v39.669h330.162v-39.669zM456.611 303.842h-330.162v39.744h330.162v-39.744zM456.611 429.441h-330.162v37.119h330.162v-37.119zM127.043 590.941h330.162v-41.056h-330.162v41.056zM787.392 920.311h-495.874v-83.945h411.406v-615.874h84.467v699.818zM166.439 796.646v-83.945h414.628v-615.277h81.839v699.225h-496.469zM44.608 675.508v-699.818h496.494v699.818h-496.494zM702.924 180.773v-120.543h-121.83v-124.309h-576.501v776.778h121.857v123.688h125.079v123.688h575.881v-779.306h-124.484z" horiz-adv-x="832" />
</font>
</defs>
</svg>
